# xmcd
#
# Track frame offsets:
#	150
#	15365
#	32327
#	48320
#	64565
#	77874
#	96208
#	114021
#	126857
#	140847
#	157604
#
# Disc length: 2378 seconds
#
# Revision: 0
# Processed by: cddbd v1.5.2PL0 Copyright (c) Steve Scherf et al.
# Submitted via: dBpowerAMP V4.0
#
DISCID=7909480b
DTITLE=Black Top - Sour Milk
DYEAR=2011
DGENRE=Blues
TTITLE0=Never Been
TTITLE1=Love-Sick-Junkie
TTITLE2=Sour Milk
TTITLE3=Keep on Moving
TTITLE4=Big Ego
TTITLE5=Another World
TTITLE6=Rock and Roll Attitude
TTITLE7=Way On Down The Road
TTITLE8=Gravy
TTITLE9=Good Ones
TTITLE10=Don't Come Around
EXTD=
EXTT0=
EXTT1=
EXTT2=
EXTT3=
EXTT4=
EXTT5=
EXTT6=
EXTT7=
EXTT8=
EXTT9=
EXTT10=
PLAYORDER=
